<svg xmlns="http://www.w3.org/2000/svg" version="1.1" xmlns:xlink="http://www.w3.org/1999/xlink" xmlns:svgjs="http://svgjs.dev/svgjs"><svg xmlns="http://www.w3.org/2000/svg" xmlns:xlink="http://www.w3.org/1999/xlink" width="407" height="916" shape-rendering="optimizeSpeed" xmlns:svgjs="http://svgjs.dev/svgjs">
                
            <g>
                <rect x="50" y="80" width="198.2" height="30" style="fill: rgb(0,255,0); stroke: #444; stroke-width: 1;"></rect>
                    
                <line x1="60" y1="80" x2="60" y2="110" style="fill:#a5d6a7; stroke:#444; stroke-width:1"></line>
                <line x1="238.2" y1="80" x2="238.2" y2="110" style="fill:#a5d6a7; stroke:#444; stroke-width:1"></line>
             
                <title>function isPrime(n)</title>
            <text x="75" y="100" font-family="monospace" font-size="13" fill="#222" svgjs:data="{&quot;leading&quot;:&quot;1.3&quot;}">
                <tspan x="75" y="100">function isPrime(n)</tspan>
            </text>
                
            </g>
                <g>
                   <rect x="87" y="128.5" width="100.2" height="30" rx="3" ry="3" style="fill: rgb(0,255,0); stroke: #444; stroke-width: 1;"></rect>
                   <title>let c = 0</title>
            <text x="102" y="148.5" font-family="monospace" font-size="13" fill="#222" svgjs:data="{&quot;leading&quot;:&quot;1.3&quot;}">
                <tspan x="102" y="148.5">let c = 0</tspan>
            </text>
                   
                   
                </g><g>

            <rect x="117" y="212" width="99" height="30" rx="3" ry="3" style="fill: rgb(0,255,0); stroke: #444; stroke-width: 1;"></rect>
            <polygon points="87,227 117,197 147,227 117,257" style="fill: rgb(0,255,0); stroke: #444; stroke-width: 1;"></polygon>
                
            <title>i &lt; n</title>
            <text x="162" y="232" font-family="monospace" font-size="13" fill="#222" svgjs:data="{&quot;leading&quot;:&quot;1.3&quot;}">
                <tspan x="162" y="232">i &lt; n</tspan>
            </text>
            
            <text x="105.3" y="232" font-family="monospace" font-size="13" fill="#222" svgjs:data="{&quot;leading&quot;:&quot;1.3&quot;}">for</text>
        </g>
                <g>
                   <rect x="137" y="267" width="53.4" height="30" rx="3" ry="3" style="fill: rgb(0,255,0); stroke: #444; stroke-width: 1;"></rect>
                   <title>i++</title>
            <text x="152" y="287" font-family="monospace" font-size="13" fill="#222" svgjs:data="{&quot;leading&quot;:&quot;1.3&quot;}">
                <tspan x="152" y="287">i++</tspan>
            </text>
                   
                   
                </g><g>

            <rect x="167" y="350.5" width="99" height="30" rx="3" ry="3" style="fill: rgb(0,255,0); stroke: #444; stroke-width: 1;"></rect>
            <polygon points="137,365.5 167,335.5 197,365.5 167,395.5" style="fill: rgb(0,255,0); stroke: #444; stroke-width: 1;"></polygon>
                
            <title>d &lt; n</title>
            <text x="212" y="370.5" font-family="monospace" font-size="13" fill="#222" svgjs:data="{&quot;leading&quot;:&quot;1.3&quot;}">
                <tspan x="212" y="370.5">d &lt; n</tspan>
            </text>
            
            <text x="155.3" y="370.5" font-family="monospace" font-size="13" fill="#222" svgjs:data="{&quot;leading&quot;:&quot;1.3&quot;}">for</text>
        </g>
                <g>
                   <rect x="187" y="405.5" width="53.4" height="30" rx="3" ry="3" style="fill: rgb(0,255,0); stroke: #444; stroke-width: 1;"></rect>
                   <title>d++</title>
            <text x="202" y="425.5" font-family="monospace" font-size="13" fill="#222" svgjs:data="{&quot;leading&quot;:&quot;1.3&quot;}">
                <tspan x="202" y="425.5">d++</tspan>
            </text>
                   
                   
                </g>
                <g>
                   <rect x="187" y="454" width="139.2" height="30" rx="2" ry="2" style="fill: rgb(0,255,0); stroke: #444; stroke-width: 1;"></rect>
                   <title>console.log(d)</title>
            <text x="202" y="474" font-family="monospace" font-size="13" fill="#222" svgjs:data="{&quot;leading&quot;:&quot;1.3&quot;}">
                <tspan x="202" y="474">console.log(d)</tspan>
            </text>
                   
                   
                </g><g>
            <rect x="167" y="517.5" width="153.6" height="30" rx="3" ry="3" style="fill: rgb(0,255,0); stroke: #444; stroke-width: 1;"></rect>                
            <polygon points="137,532.5 167,502.5 197,532.5 167,562.5" style="fill: rgb(0,255,0); stroke: #444; stroke-width: 1;"></polygon>
            <title>(n % i == 0)</title>
            <text x="212" y="537.5" font-family="monospace" font-size="13" fill="#222" svgjs:data="{&quot;leading&quot;:&quot;1.3&quot;}">
                <tspan x="212" y="537.5">(n % i == 0)</tspan>
            </text>
            
            <text x="159.2" y="537.5" font-family="monospace" font-size="13" fill="#222" svgjs:data="{&quot;leading&quot;:&quot;1.3&quot;}">if</text> <text x="174.8" y="564.45" font-family="monospace" font-size="13" fill="#222" svgjs:data="{&quot;leading&quot;:&quot;1.3&quot;}">+</text> 
        </g>
                <g>
                   <rect x="187" y="572.5" width="53.4" height="30" rx="3" ry="3" style="fill: rgb(0,255,0); stroke: #444; stroke-width: 1;"></rect>
                   <title>c++</title>
            <text x="202" y="592.5" font-family="monospace" font-size="13" fill="#222" svgjs:data="{&quot;leading&quot;:&quot;1.3&quot;}">
                <tspan x="202" y="592.5">c++</tspan>
            </text>
                   
                   
                </g><g>
            <rect x="217" y="636" width="114.6" height="30" rx="3" ry="3" style="fill: rgb(0,255,0); stroke: #444; stroke-width: 1;"></rect>                
            <polygon points="187,651 217,621 247,651 217,681" style="fill: rgb(0,255,0); stroke: #444; stroke-width: 1;"></polygon>
            <title>(c &gt; 1)</title>
            <text x="262" y="656" font-family="monospace" font-size="13" fill="#222" svgjs:data="{&quot;leading&quot;:&quot;1.3&quot;}">
                <tspan x="262" y="656">(c &gt; 1)</tspan>
            </text>
            
            <text x="209.2" y="656" font-family="monospace" font-size="13" fill="#222" svgjs:data="{&quot;leading&quot;:&quot;1.3&quot;}">if</text> <text x="224.8" y="682.95" font-family="monospace" font-size="13" fill="#222" svgjs:data="{&quot;leading&quot;:&quot;1.3&quot;}">+</text> 
        </g>
            <g>
                <rect x="237" y="691" width="123.6" height="30" rx="3" ry="3" style="fill: rgb(255,0,0); stroke: #444; stroke-width: 1;"></rect>
                
                <line x1="360.6" y1="701" x2="365.6" y2="701" style="fill:#a5d6a7; stroke:#444; stroke-width:1"></line>
                
                <line x1="360.6" y1="711" x2="365.6" y2="711" style="fill:#a5d6a7; stroke:#444; stroke-width:1"></line>

                <path d="M365.6, 695 L381.6, 706 L365.6, 717 Z" fill="#a5d6a7" stroke="#444" stroke-width="1" style="fill: rgb(255,0,0);"></path>
                             
                <title>return false</title>
            <text x="252" y="711" font-family="monospace" font-size="13" fill="#222" svgjs:data="{&quot;leading&quot;:&quot;1.3&quot;}">
                <tspan x="252" y="711">return false</tspan>
            </text>
                
            </g><g>
            <rect x="117" y="756" width="122.4" height="30" rx="3" ry="3" style="fill: rgb(0,255,0); stroke: #444; stroke-width: 1;"></rect>                
            <polygon points="87,771 117,741 147,771 117,801" style="fill: rgb(0,255,0); stroke: #444; stroke-width: 1;"></polygon>
            <title>(c == 1)</title>
            <text x="162" y="776" font-family="monospace" font-size="13" fill="#222" svgjs:data="{&quot;leading&quot;:&quot;1.3&quot;}">
                <tspan x="162" y="776">(c == 1)</tspan>
            </text>
            
            <text x="109.2" y="776" font-family="monospace" font-size="13" fill="#222" svgjs:data="{&quot;leading&quot;:&quot;1.3&quot;}">if</text> <text x="124.8" y="802.95" font-family="monospace" font-size="13" fill="#222" svgjs:data="{&quot;leading&quot;:&quot;1.3&quot;}">+</text> 
        </g>
            <g>
                <rect x="137" y="811" width="115.80000000000001" height="30" rx="3" ry="3" style="fill: rgb(0,255,0); stroke: #444; stroke-width: 1;"></rect>
                
                <line x1="252.8" y1="821" x2="257.8" y2="821" style="fill:#a5d6a7; stroke:#444; stroke-width:1"></line>
                
                <line x1="252.8" y1="831" x2="257.8" y2="831" style="fill:#a5d6a7; stroke:#444; stroke-width:1"></line>

                <path d="M257.8, 815 L273.8, 826 L257.8, 837 Z" fill="#a5d6a7" stroke="#444" stroke-width="1" style="fill: rgb(0,255,0);"></path>
                             
                <title>return true</title>
            <text x="152" y="831" font-family="monospace" font-size="13" fill="#222" svgjs:data="{&quot;leading&quot;:&quot;1.3&quot;}">
                <tspan x="152" y="831">return true</tspan>
            </text>
                
            </g>
            <g>
                <rect x="87" y="861" width="123.6" height="30" rx="3" ry="3" style="fill: rgb(255,0,0); stroke: #444; stroke-width: 1;"></rect>
                
                <line x1="210.6" y1="871" x2="215.6" y2="871" style="fill:#a5d6a7; stroke:#444; stroke-width:1"></line>
                
                <line x1="210.6" y1="881" x2="215.6" y2="881" style="fill:#a5d6a7; stroke:#444; stroke-width:1"></line>

                <path d="M215.6, 865 L231.6, 876 L215.6, 887 Z" fill="#a5d6a7" stroke="#444" stroke-width="1" style="fill: rgb(255,0,0);"></path>
                             
                <title>return false</title>
            <text x="102" y="881" font-family="monospace" font-size="13" fill="#222" svgjs:data="{&quot;leading&quot;:&quot;1.3&quot;}">
                <tspan x="102" y="881">return false</tspan>
            </text>
                
            </g>
            <g>
               <rect x="25" y="13.75" width="216.6" height="24" style="fill: rgb(0,255,0); stroke: #444; stroke-width: 1;"></rect>
               <circle cx="25" cy="25" r="15" style="fill:#fff59d; stroke:#444; stroke-width:1"></circle>
               <title>Program: source module</title>
            <text x="55" y="30" font-family="monospace" font-size="13" fill="#222" svgjs:data="{&quot;leading&quot;:&quot;1.3&quot;}">
                <tspan x="55" y="30">Program: source module</tspan>
            </text>
            </g>
            <g>
               <path d="M25, 40 L25 91 Q25 95
                29 95
                L42 95 " style="fill:none; stroke:#444; stroke-width:1"></path>
               <path d="M42, 92 L50, 95 L42, 98 Z" fill="#333"></path>
            </g>
            <g>
               <path d="M68.5, 110 L68.5 139.5 Q68.5 143.5
                72.5 143.5
                L79 143.5 " style="fill:none; stroke:#444; stroke-width:1"></path>
               <path d="M79, 140.5 L87, 143.5 L79, 146.5 Z" fill="#333"></path>
            </g>
            <g>
               <path d="M68.5, 110 L68.5 223 Q68.5 227
                72.5 227
                L79 227 " style="fill:none; stroke:#444; stroke-width:1"></path>
               <path d="M79, 224 L87, 227 L79, 230 Z" fill="#333"></path>
            </g>
            <g>
               <path d="M117, 257 L117 278 Q117 282
                121 282
                L129 282 " style="fill:none; stroke:#444; stroke-width:1"></path>
               <path d="M129, 279 L137, 282 L129, 285 Z" fill="#333"></path>
            </g>
            <g>
               <path d="M117, 257 L117 361.5 Q117 365.5
                121 365.5
                L129 365.5 " style="fill:none; stroke:#444; stroke-width:1"></path>
               <path d="M129, 362.5 L137, 365.5 L129, 368.5 Z" fill="#333"></path>
            </g>
            <g>
               <path d="M167, 395.5 L167 416.5 Q167 420.5
                171 420.5
                L179 420.5 " style="fill:none; stroke:#444; stroke-width:1"></path>
               <path d="M179, 417.5 L187, 420.5 L179, 423.5 Z" fill="#333"></path>
            </g>
            <g>
               <path d="M167, 395.5 L167 465 Q167 469
                171 469
                L179 469 " style="fill:none; stroke:#444; stroke-width:1"></path>
               <path d="M179, 466 L187, 469 L179, 472 Z" fill="#333"></path>
            </g>
            <g>
               <path d="M326.2, 469 L342.2 469  Q346.2 469
                346.2 465
                L346.2 323.5 Q346.2 315.5
                342.2 315.5
                L175 315.5  Q167 315.5
                167 319.5
                L167 327.5" style="fill:none; stroke:#444; stroke-width:1"></path>
               <path d="M164, 327.5 L167, 335.5 L170, 327.5 Z" fill="#333"></path>
            </g>
            <g>
               <path d="M117, 257 L117 528.5 Q117 532.5
                121 532.5
                L129 532.5 " style="fill:none; stroke:#444; stroke-width:1"></path>
               <path d="M129, 529.5 L137, 532.5 L129, 535.5 Z" fill="#333"></path>
            </g>
            <g>
               <path d="M167, 562.5 L167 583.5 Q167 587.5
                171 587.5
                L179 587.5 " style="fill:none; stroke:#444; stroke-width:1"></path>
               <path d="M179, 584.5 L187, 587.5 L179, 590.5 Z" fill="#333"></path>
            </g>
            <g>
               <path d="M167, 562.5 L167 647 Q167 651
                171 651
                L179 651 " style="fill:none; stroke:#444; stroke-width:1"></path>
               <path d="M179, 648 L187, 651 L179, 654 Z" fill="#333"></path>
            </g>
            <g>
               <path d="M217, 681 L217 702 Q217 706
                221 706
                L229 706 " style="fill:none; stroke:#444; stroke-width:1"></path>
               <path d="M229, 703 L237, 706 L229, 709 Z" fill="#333"></path>
            </g>
            <g>
               <path d="M381.6, 706 L397.6 706  Q401.6 706
                401.6 702
                L401.6 185 Q401.6 177
                397.6 177
                L125 177  Q117 177
                117 181
                L117 189" style="fill:none; stroke:#444; stroke-width:1"></path>
               <path d="M114, 189 L117, 197 L120, 189 Z" fill="#333"></path>
            </g>
            <g>
               <path d="M68.5, 110 L68.5 767 Q68.5 771
                72.5 771
                L79 771 " style="fill:none; stroke:#444; stroke-width:1"></path>
               <path d="M79, 768 L87, 771 L79, 774 Z" fill="#333"></path>
            </g>
            <g>
               <path d="M117, 801 L117 822 Q117 826
                121 826
                L129 826 " style="fill:none; stroke:#444; stroke-width:1"></path>
               <path d="M129, 823 L137, 826 L129, 829 Z" fill="#333"></path>
            </g>
            <g>
               <path d="M68.5, 110 L68.5 872 Q68.5 876
                72.5 876
                L79 876 " style="fill:none; stroke:#444; stroke-width:1"></path>
               <path d="M79, 873 L87, 876 L79, 879 Z" fill="#333"></path>
            </g>
            </svg></svg>