<svg xmlns="http://www.w3.org/2000/svg" version="1.1" xmlns:xlink="http://www.w3.org/1999/xlink" xmlns:svgjs="http://svgjs.dev/svgjs"><svg xmlns="http://www.w3.org/2000/svg" xmlns:xlink="http://www.w3.org/1999/xlink" width="407" height="778" shape-rendering="optimizeSpeed" xmlns:svgjs="http://svgjs.dev/svgjs">
                
            <g>
                <rect x="50" y="80" width="198.2" height="30" style="fill: rgb(0,255,0); stroke: #444; stroke-width: 1;"></rect>
                    
                <line x1="60" y1="80" x2="60" y2="110" style="fill:#a5d6a7; stroke:#444; stroke-width:1"></line>
                <line x1="238.2" y1="80" x2="238.2" y2="110" style="fill:#a5d6a7; stroke:#444; stroke-width:1"></line>
             
                <title>function isPrime(n)</title>
            <text x="75" y="100" font-family="monospace" font-size="13" fill="#222" svgjs:data="{&quot;leading&quot;:&quot;1.3&quot;}">
                <tspan x="75" y="100">function isPrime(n)</tspan>
            </text>
                
            </g>
                <g>
                   <rect x="87" y="128.5" width="100.2" height="30" rx="3" ry="3" style="fill: rgb(0,255,0); stroke: #444; stroke-width: 1;"></rect>
                   <title>let c = 0</title>
            <text x="102" y="148.5" font-family="monospace" font-size="13" fill="#222" svgjs:data="{&quot;leading&quot;:&quot;1.3&quot;}">
                <tspan x="102" y="148.5">let c = 0</tspan>
            </text>
                   
                   
                </g>
                <g>
                   <rect x="87" y="177" width="100.2" height="30" rx="3" ry="3" style="fill: rgb(0,255,0); stroke: #444; stroke-width: 1;"></rect>
                   <title>let i = 1</title>
            <text x="102" y="197" font-family="monospace" font-size="13" fill="#222" svgjs:data="{&quot;leading&quot;:&quot;1.3&quot;}">
                <tspan x="102" y="197">let i = 1</tspan>
            </text>
                   
                   
                </g><g>

            <rect x="117" y="260.5" width="99" height="30" rx="3" ry="3" style="fill: rgb(0,255,0); stroke: #444; stroke-width: 1;"></rect>
            <polygon points="87,275.5 117,245.5 147,275.5 117,305.5" style="fill: rgb(0,255,0); stroke: #444; stroke-width: 1;"></polygon>
                
            <title>i &lt; n</title>
            <text x="162" y="280.5" font-family="monospace" font-size="13" fill="#222" svgjs:data="{&quot;leading&quot;:&quot;1.3&quot;}">
                <tspan x="162" y="280.5">i &lt; n</tspan>
            </text>
            
            <text x="97.5" y="280.5" font-family="monospace" font-size="13" fill="#222" svgjs:data="{&quot;leading&quot;:&quot;1.3&quot;}">while</text>
        </g><g>
            <rect x="167" y="330.5" width="153.6" height="30" rx="3" ry="3" style="fill: rgb(0,255,0); stroke: #444; stroke-width: 1;"></rect>                
            <polygon points="137,345.5 167,315.5 197,345.5 167,375.5" style="fill: rgb(0,255,0); stroke: #444; stroke-width: 1;"></polygon>
            <title>(n % i == 0)</title>
            <text x="212" y="350.5" font-family="monospace" font-size="13" fill="#222" svgjs:data="{&quot;leading&quot;:&quot;1.3&quot;}">
                <tspan x="212" y="350.5">(n % i == 0)</tspan>
            </text>
            
            <text x="159.2" y="350.5" font-family="monospace" font-size="13" fill="#222" svgjs:data="{&quot;leading&quot;:&quot;1.3&quot;}">if</text> <text x="174.8" y="377.45" font-family="monospace" font-size="13" fill="#222" svgjs:data="{&quot;leading&quot;:&quot;1.3&quot;}">+</text> 
        </g>
                <g>
                   <rect x="187" y="385.5" width="53.4" height="30" rx="3" ry="3" style="fill: rgb(0,255,0); stroke: #444; stroke-width: 1;"></rect>
                   <title>c++</title>
            <text x="202" y="405.5" font-family="monospace" font-size="13" fill="#222" svgjs:data="{&quot;leading&quot;:&quot;1.3&quot;}">
                <tspan x="202" y="405.5">c++</tspan>
            </text>
                   
                   
                </g><g>
            <rect x="217" y="449" width="114.6" height="30" rx="3" ry="3" style="fill: rgb(0,255,0); stroke: #444; stroke-width: 1;"></rect>                
            <polygon points="187,464 217,434 247,464 217,494" style="fill: rgb(0,255,0); stroke: #444; stroke-width: 1;"></polygon>
            <title>(c &gt; 1)</title>
            <text x="262" y="469" font-family="monospace" font-size="13" fill="#222" svgjs:data="{&quot;leading&quot;:&quot;1.3&quot;}">
                <tspan x="262" y="469">(c &gt; 1)</tspan>
            </text>
            
            <text x="209.2" y="469" font-family="monospace" font-size="13" fill="#222" svgjs:data="{&quot;leading&quot;:&quot;1.3&quot;}">if</text> <text x="224.8" y="495.95" font-family="monospace" font-size="13" fill="#222" svgjs:data="{&quot;leading&quot;:&quot;1.3&quot;}">+</text> 
        </g>
            <g>
                <rect x="237" y="504" width="123.6" height="30" rx="3" ry="3" style="fill: rgb(0,255,0); stroke: #444; stroke-width: 1;"></rect>
                
                <line x1="360.6" y1="514" x2="365.6" y2="514" style="fill:#a5d6a7; stroke:#444; stroke-width:1"></line>
                
                <line x1="360.6" y1="524" x2="365.6" y2="524" style="fill:#a5d6a7; stroke:#444; stroke-width:1"></line>

                <path d="M365.6, 508 L381.6, 519 L365.6, 530 Z" fill="#a5d6a7" stroke="#444" stroke-width="1" style="fill: rgb(0,255,0);"></path>
                             
                <title>return false</title>
            <text x="252" y="524" font-family="monospace" font-size="13" fill="#222" svgjs:data="{&quot;leading&quot;:&quot;1.3&quot;}">
                <tspan x="252" y="524">return false</tspan>
            </text>
                
            </g>
                <g>
                   <rect x="137" y="554" width="53.4" height="30" rx="3" ry="3" style="fill: rgb(0,255,0); stroke: #444; stroke-width: 1;"></rect>
                   <title>i++</title>
            <text x="152" y="574" font-family="monospace" font-size="13" fill="#222" svgjs:data="{&quot;leading&quot;:&quot;1.3&quot;}">
                <tspan x="152" y="574">i++</tspan>
            </text>
                   
                   
                </g><g>
            <rect x="117" y="617.5" width="122.4" height="30" rx="3" ry="3" style="fill: rgb(0,255,0); stroke: #444; stroke-width: 1;"></rect>                
            <polygon points="87,632.5 117,602.5 147,632.5 117,662.5" style="fill: rgb(0,255,0); stroke: #444; stroke-width: 1;"></polygon>
            <title>(c == 1)</title>
            <text x="162" y="637.5" font-family="monospace" font-size="13" fill="#222" svgjs:data="{&quot;leading&quot;:&quot;1.3&quot;}">
                <tspan x="162" y="637.5">(c == 1)</tspan>
            </text>
            
            <text x="109.2" y="637.5" font-family="monospace" font-size="13" fill="#222" svgjs:data="{&quot;leading&quot;:&quot;1.3&quot;}">if</text> <text x="124.8" y="664.45" font-family="monospace" font-size="13" fill="#222" svgjs:data="{&quot;leading&quot;:&quot;1.3&quot;}">+</text> 
        </g>
            <g>
                <rect x="137" y="672.5" width="115.80000000000001" height="30" rx="3" ry="3" style="fill: rgb(0,255,0); stroke: #444; stroke-width: 1;"></rect>
                
                <line x1="252.8" y1="682.5" x2="257.8" y2="682.5" style="fill:#a5d6a7; stroke:#444; stroke-width:1"></line>
                
                <line x1="252.8" y1="692.5" x2="257.8" y2="692.5" style="fill:#a5d6a7; stroke:#444; stroke-width:1"></line>

                <path d="M257.8, 676.5 L273.8, 687.5 L257.8, 698.5 Z" fill="#a5d6a7" stroke="#444" stroke-width="1" style="fill: rgb(0,255,0);"></path>
                             
                <title>return true</title>
            <text x="152" y="692.5" font-family="monospace" font-size="13" fill="#222" svgjs:data="{&quot;leading&quot;:&quot;1.3&quot;}">
                <tspan x="152" y="692.5">return true</tspan>
            </text>
                
            </g>
            <g>
                <rect x="87" y="722.5" width="123.6" height="30" rx="3" ry="3" style="fill: rgb(0,255,0); stroke: #444; stroke-width: 1;"></rect>
                
                <line x1="210.6" y1="732.5" x2="215.6" y2="732.5" style="fill:#a5d6a7; stroke:#444; stroke-width:1"></line>
                
                <line x1="210.6" y1="742.5" x2="215.6" y2="742.5" style="fill:#a5d6a7; stroke:#444; stroke-width:1"></line>

                <path d="M215.6, 726.5 L231.6, 737.5 L215.6, 748.5 Z" fill="#a5d6a7" stroke="#444" stroke-width="1" style="fill: rgb(0,255,0);"></path>
                             
                <title>return false</title>
            <text x="102" y="742.5" font-family="monospace" font-size="13" fill="#222" svgjs:data="{&quot;leading&quot;:&quot;1.3&quot;}">
                <tspan x="102" y="742.5">return false</tspan>
            </text>
                
            </g>
            <g>
               <rect x="25" y="13.75" width="216.6" height="24" style="fill: rgb(0,255,0); stroke: #444; stroke-width: 1;"></rect>
               <circle cx="25" cy="25" r="15" style="fill:#fff59d; stroke:#444; stroke-width:1"></circle>
               <title>Program: source module</title>
            <text x="55" y="30" font-family="monospace" font-size="13" fill="#222" svgjs:data="{&quot;leading&quot;:&quot;1.3&quot;}">
                <tspan x="55" y="30">Program: source module</tspan>
            </text>
            </g>
            <g>
               <path d="M25, 40 L25 91 Q25 95
                29 95
                L42 95 " style="fill:none; stroke:#444; stroke-width:1"></path>
               <path d="M42, 92 L50, 95 L42, 98 Z" fill="#333"></path>
            </g>
            <g>
               <path d="M68.5, 110 L68.5 139.5 Q68.5 143.5
                72.5 143.5
                L79 143.5 " style="fill:none; stroke:#444; stroke-width:1"></path>
               <path d="M79, 140.5 L87, 143.5 L79, 146.5 Z" fill="#333"></path>
            </g>
            <g>
               <path d="M68.5, 110 L68.5 188 Q68.5 192
                72.5 192
                L79 192 " style="fill:none; stroke:#444; stroke-width:1"></path>
               <path d="M79, 189 L87, 192 L79, 195 Z" fill="#333"></path>
            </g>
            <g>
               <path d="M68.5, 110 L68.5 271.5 Q68.5 275.5
                72.5 275.5
                L79 275.5 " style="fill:none; stroke:#444; stroke-width:1"></path>
               <path d="M79, 272.5 L87, 275.5 L79, 278.5 Z" fill="#333"></path>
            </g>
            <g>
               <path d="M117, 305.5 L117 341.5 Q117 345.5
                121 345.5
                L129 345.5 " style="fill:none; stroke:#444; stroke-width:1"></path>
               <path d="M129, 342.5 L137, 345.5 L129, 348.5 Z" fill="#333"></path>
            </g>
            <g>
               <path d="M167, 375.5 L167 396.5 Q167 400.5
                171 400.5
                L179 400.5 " style="fill:none; stroke:#444; stroke-width:1"></path>
               <path d="M179, 397.5 L187, 400.5 L179, 403.5 Z" fill="#333"></path>
            </g>
            <g>
               <path d="M167, 375.5 L167 460 Q167 464
                171 464
                L179 464 " style="fill:none; stroke:#444; stroke-width:1"></path>
               <path d="M179, 461 L187, 464 L179, 467 Z" fill="#333"></path>
            </g>
            <g>
               <path d="M217, 494 L217 515 Q217 519
                221 519
                L229 519 " style="fill:none; stroke:#444; stroke-width:1"></path>
               <path d="M229, 516 L237, 519 L229, 522 Z" fill="#333"></path>
            </g>
            <g>
               <path d="M117, 305.5 L117 565 Q117 569
                121 569
                L129 569 " style="fill:none; stroke:#444; stroke-width:1"></path>
               <path d="M129, 566 L137, 569 L129, 572 Z" fill="#333"></path>
            </g>
            <g>
               <path d="M190.4, 569 L397.6 569  Q401.6 569
                401.6 565
                L401.6 233.5 Q401.6 225.5
                397.6 225.5
                L125 225.5  Q117 225.5
                117 229.5
                L117 237.5" style="fill:none; stroke:#444; stroke-width:1"></path>
               <path d="M114, 237.5 L117, 245.5 L120, 237.5 Z" fill="#333"></path>
            </g>
            <g>
               <path d="M68.5, 110 L68.5 628.5 Q68.5 632.5
                72.5 632.5
                L79 632.5 " style="fill:none; stroke:#444; stroke-width:1"></path>
               <path d="M79, 629.5 L87, 632.5 L79, 635.5 Z" fill="#333"></path>
            </g>
            <g>
               <path d="M117, 662.5 L117 683.5 Q117 687.5
                121 687.5
                L129 687.5 " style="fill:none; stroke:#444; stroke-width:1"></path>
               <path d="M129, 684.5 L137, 687.5 L129, 690.5 Z" fill="#333"></path>
            </g>
            <g>
               <path d="M68.5, 110 L68.5 733.5 Q68.5 737.5
                72.5 737.5
                L79 737.5 " style="fill:none; stroke:#444; stroke-width:1"></path>
               <path d="M79, 734.5 L87, 737.5 L79, 740.5 Z" fill="#333"></path>
            </g>
            </svg></svg>