<svg xmlns="http://www.w3.org/2000/svg" version="1.1" xmlns:xlink="http://www.w3.org/1999/xlink" xmlns:svgjs="http://svgjs.dev/svgjs"><svg xmlns="http://www.w3.org/2000/svg" xmlns:xlink="http://www.w3.org/1999/xlink" width="407" height="729" shape-rendering="optimizeSpeed" xmlns:svgjs="http://svgjs.dev/svgjs">
                
            <g>
                <rect x="50" y="80" width="198.2" height="30" style="fill: rgb(0,255,0); stroke: #444; stroke-width: 1;"></rect>
                    
                <line x1="60" y1="80" x2="60" y2="110" style="fill:#a5d6a7; stroke:#444; stroke-width:1"></line>
                <line x1="238.2" y1="80" x2="238.2" y2="110" style="fill:#a5d6a7; stroke:#444; stroke-width:1"></line>
             
                <title>function isPrime(n)</title>
            <text x="75" y="100" font-family="monospace" font-size="13" fill="#222" svgjs:data="{&quot;leading&quot;:&quot;1.3&quot;}">
                <tspan x="75" y="100">function isPrime(n)</tspan>
            </text>
                
            </g>
                <g>
                   <rect x="87" y="128.5" width="100.2" height="30" rx="3" ry="3" style="fill: rgb(0,255,0); stroke: #444; stroke-width: 1;"></rect>
                   <title>let c = 0</title>
            <text x="102" y="148.5" font-family="monospace" font-size="13" fill="#222" svgjs:data="{&quot;leading&quot;:&quot;1.3&quot;}">
                <tspan x="102" y="148.5">let c = 0</tspan>
            </text>
                   
                   
                </g><g>

            <rect x="117" y="212" width="99" height="30" rx="3" ry="3" style="fill: rgb(0,255,0); stroke: #444; stroke-width: 1;"></rect>
            <polygon points="87,227 117,197 147,227 117,257" style="fill: rgb(0,255,0); stroke: #444; stroke-width: 1;"></polygon>
                
            <title>i &lt; n</title>
            <text x="162" y="232" font-family="monospace" font-size="13" fill="#222" svgjs:data="{&quot;leading&quot;:&quot;1.3&quot;}">
                <tspan x="162" y="232">i &lt; n</tspan>
            </text>
            
            <text x="105.3" y="232" font-family="monospace" font-size="13" fill="#222" svgjs:data="{&quot;leading&quot;:&quot;1.3&quot;}">for</text>
        </g>
                <g>
                   <rect x="137" y="267" width="53.4" height="30" rx="3" ry="3" style="fill: rgb(0,255,0); stroke: #444; stroke-width: 1;"></rect>
                   <title>i++</title>
            <text x="152" y="287" font-family="monospace" font-size="13" fill="#222" svgjs:data="{&quot;leading&quot;:&quot;1.3&quot;}">
                <tspan x="152" y="287">i++</tspan>
            </text>
                   
                   
                </g><g>
            <rect x="167" y="330.5" width="153.6" height="30" rx="3" ry="3" style="fill: rgb(0,255,0); stroke: #444; stroke-width: 1;"></rect>                
            <polygon points="137,345.5 167,315.5 197,345.5 167,375.5" style="fill: rgb(0,255,0); stroke: #444; stroke-width: 1;"></polygon>
            <title>(n % i == 0)</title>
            <text x="212" y="350.5" font-family="monospace" font-size="13" fill="#222" svgjs:data="{&quot;leading&quot;:&quot;1.3&quot;}">
                <tspan x="212" y="350.5">(n % i == 0)</tspan>
            </text>
            
            <text x="159.2" y="350.5" font-family="monospace" font-size="13" fill="#222" svgjs:data="{&quot;leading&quot;:&quot;1.3&quot;}">if</text> <text x="174.8" y="377.45" font-family="monospace" font-size="13" fill="#222" svgjs:data="{&quot;leading&quot;:&quot;1.3&quot;}">+</text> 
        </g>
                <g>
                   <rect x="187" y="385.5" width="53.4" height="30" rx="3" ry="3" style="fill: rgb(0,255,0); stroke: #444; stroke-width: 1;"></rect>
                   <title>c++</title>
            <text x="202" y="405.5" font-family="monospace" font-size="13" fill="#222" svgjs:data="{&quot;leading&quot;:&quot;1.3&quot;}">
                <tspan x="202" y="405.5">c++</tspan>
            </text>
                   
                   
                </g><g>
            <rect x="217" y="449" width="114.6" height="30" rx="3" ry="3" style="fill: rgb(0,255,0); stroke: #444; stroke-width: 1;"></rect>                
            <polygon points="187,464 217,434 247,464 217,494" style="fill: rgb(0,255,0); stroke: #444; stroke-width: 1;"></polygon>
            <title>(c &gt; 1)</title>
            <text x="262" y="469" font-family="monospace" font-size="13" fill="#222" svgjs:data="{&quot;leading&quot;:&quot;1.3&quot;}">
                <tspan x="262" y="469">(c &gt; 1)</tspan>
            </text>
            
            <text x="209.2" y="469" font-family="monospace" font-size="13" fill="#222" svgjs:data="{&quot;leading&quot;:&quot;1.3&quot;}">if</text> <text x="224.8" y="495.95" font-family="monospace" font-size="13" fill="#222" svgjs:data="{&quot;leading&quot;:&quot;1.3&quot;}">+</text> 
        </g>
            <g>
                <rect x="237" y="504" width="123.6" height="30" rx="3" ry="3" style="fill: rgb(255,0,0); stroke: #444; stroke-width: 1;"></rect>
                
                <line x1="360.6" y1="514" x2="365.6" y2="514" style="fill:#a5d6a7; stroke:#444; stroke-width:1"></line>
                
                <line x1="360.6" y1="524" x2="365.6" y2="524" style="fill:#a5d6a7; stroke:#444; stroke-width:1"></line>

                <path d="M365.6, 508 L381.6, 519 L365.6, 530 Z" fill="#a5d6a7" stroke="#444" stroke-width="1" style="fill: rgb(255,0,0);"></path>
                             
                <title>return false</title>
            <text x="252" y="524" font-family="monospace" font-size="13" fill="#222" svgjs:data="{&quot;leading&quot;:&quot;1.3&quot;}">
                <tspan x="252" y="524">return false</tspan>
            </text>
                
            </g><g>
            <rect x="117" y="569" width="122.4" height="30" rx="3" ry="3" style="fill: rgb(0,255,0); stroke: #444; stroke-width: 1;"></rect>                
            <polygon points="87,584 117,554 147,584 117,614" style="fill: rgb(0,255,0); stroke: #444; stroke-width: 1;"></polygon>
            <title>(c == 1)</title>
            <text x="162" y="589" font-family="monospace" font-size="13" fill="#222" svgjs:data="{&quot;leading&quot;:&quot;1.3&quot;}">
                <tspan x="162" y="589">(c == 1)</tspan>
            </text>
            
            <text x="109.2" y="589" font-family="monospace" font-size="13" fill="#222" svgjs:data="{&quot;leading&quot;:&quot;1.3&quot;}">if</text> <text x="124.8" y="615.95" font-family="monospace" font-size="13" fill="#222" svgjs:data="{&quot;leading&quot;:&quot;1.3&quot;}">+</text> 
        </g>
            <g>
                <rect x="137" y="624" width="115.80000000000001" height="30" rx="3" ry="3" style="fill: rgb(0,255,0); stroke: #444; stroke-width: 1;"></rect>
                
                <line x1="252.8" y1="634" x2="257.8" y2="634" style="fill:#a5d6a7; stroke:#444; stroke-width:1"></line>
                
                <line x1="252.8" y1="644" x2="257.8" y2="644" style="fill:#a5d6a7; stroke:#444; stroke-width:1"></line>

                <path d="M257.8, 628 L273.8, 639 L257.8, 650 Z" fill="#a5d6a7" stroke="#444" stroke-width="1" style="fill: rgb(0,255,0);"></path>
                             
                <title>return true</title>
            <text x="152" y="644" font-family="monospace" font-size="13" fill="#222" svgjs:data="{&quot;leading&quot;:&quot;1.3&quot;}">
                <tspan x="152" y="644">return true</tspan>
            </text>
                
            </g>
            <g>
                <rect x="87" y="674" width="123.6" height="30" rx="3" ry="3" style="fill: rgb(255,0,0); stroke: #444; stroke-width: 1;"></rect>
                
                <line x1="210.6" y1="684" x2="215.6" y2="684" style="fill:#a5d6a7; stroke:#444; stroke-width:1"></line>
                
                <line x1="210.6" y1="694" x2="215.6" y2="694" style="fill:#a5d6a7; stroke:#444; stroke-width:1"></line>

                <path d="M215.6, 678 L231.6, 689 L215.6, 700 Z" fill="#a5d6a7" stroke="#444" stroke-width="1" style="fill: rgb(255,0,0);"></path>
                             
                <title>return false</title>
            <text x="102" y="694" font-family="monospace" font-size="13" fill="#222" svgjs:data="{&quot;leading&quot;:&quot;1.3&quot;}">
                <tspan x="102" y="694">return false</tspan>
            </text>
                
            </g>
            <g>
               <rect x="25" y="13.75" width="216.6" height="24" style="fill: rgb(0,255,0); stroke: #444; stroke-width: 1;"></rect>
               <circle cx="25" cy="25" r="15" style="fill:#fff59d; stroke:#444; stroke-width:1"></circle>
               <title>Program: source module</title>
            <text x="55" y="30" font-family="monospace" font-size="13" fill="#222" svgjs:data="{&quot;leading&quot;:&quot;1.3&quot;}">
                <tspan x="55" y="30">Program: source module</tspan>
            </text>
            </g>
            <g>
               <path d="M25, 40 L25 91 Q25 95
                29 95
                L42 95 " style="fill:none; stroke:#444; stroke-width:1"></path>
               <path d="M42, 92 L50, 95 L42, 98 Z" fill="#333"></path>
            </g>
            <g>
               <path d="M68.5, 110 L68.5 139.5 Q68.5 143.5
                72.5 143.5
                L79 143.5 " style="fill:none; stroke:#444; stroke-width:1"></path>
               <path d="M79, 140.5 L87, 143.5 L79, 146.5 Z" fill="#333"></path>
            </g>
            <g>
               <path d="M68.5, 110 L68.5 223 Q68.5 227
                72.5 227
                L79 227 " style="fill:none; stroke:#444; stroke-width:1"></path>
               <path d="M79, 224 L87, 227 L79, 230 Z" fill="#333"></path>
            </g>
            <g>
               <path d="M117, 257 L117 278 Q117 282
                121 282
                L129 282 " style="fill:none; stroke:#444; stroke-width:1"></path>
               <path d="M129, 279 L137, 282 L129, 285 Z" fill="#333"></path>
            </g>
            <g>
               <path d="M117, 257 L117 341.5 Q117 345.5
                121 345.5
                L129 345.5 " style="fill:none; stroke:#444; stroke-width:1"></path>
               <path d="M129, 342.5 L137, 345.5 L129, 348.5 Z" fill="#333"></path>
            </g>
            <g>
               <path d="M167, 375.5 L167 396.5 Q167 400.5
                171 400.5
                L179 400.5 " style="fill:none; stroke:#444; stroke-width:1"></path>
               <path d="M179, 397.5 L187, 400.5 L179, 403.5 Z" fill="#333"></path>
            </g>
            <g>
               <path d="M167, 375.5 L167 460 Q167 464
                171 464
                L179 464 " style="fill:none; stroke:#444; stroke-width:1"></path>
               <path d="M179, 461 L187, 464 L179, 467 Z" fill="#333"></path>
            </g>
            <g>
               <path d="M217, 494 L217 515 Q217 519
                221 519
                L229 519 " style="fill:none; stroke:#444; stroke-width:1"></path>
               <path d="M229, 516 L237, 519 L229, 522 Z" fill="#333"></path>
            </g>
            <g>
               <path d="M381.6, 519 L397.6 519  Q401.6 519
                401.6 515
                L401.6 185 Q401.6 177
                397.6 177
                L125 177  Q117 177
                117 181
                L117 189" style="fill:none; stroke:#444; stroke-width:1"></path>
               <path d="M114, 189 L117, 197 L120, 189 Z" fill="#333"></path>
            </g>
            <g>
               <path d="M68.5, 110 L68.5 580 Q68.5 584
                72.5 584
                L79 584 " style="fill:none; stroke:#444; stroke-width:1"></path>
               <path d="M79, 581 L87, 584 L79, 587 Z" fill="#333"></path>
            </g>
            <g>
               <path d="M117, 614 L117 635 Q117 639
                121 639
                L129 639 " style="fill:none; stroke:#444; stroke-width:1"></path>
               <path d="M129, 636 L137, 639 L129, 642 Z" fill="#333"></path>
            </g>
            <g>
               <path d="M68.5, 110 L68.5 685 Q68.5 689
                72.5 689
                L79 689 " style="fill:none; stroke:#444; stroke-width:1"></path>
               <path d="M79, 686 L87, 689 L79, 692 Z" fill="#333"></path>
            </g>
            </svg></svg>