
                <svg xmlns="http://www.w3.org/2000/svg" xmlns:xlink="http://www.w3.org/1999/xlink" 
                width="341" height="662" shape-rendering="optimizeSpeed">
                
            <g>
                <rect x="50" y="80"
            width="260.6" height="30"
            style="fill:#a5d6a7; stroke:#444; stroke-width:1" />
                    
                <line x1="60" y1="80" x2="60" y2="110"
                style="fill:#a5d6a7; stroke:#444; stroke-width:1" />
                <line x1="300.6" y1="80" x2="300.6" y2="110"
                style="fill:#a5d6a7; stroke:#444; stroke-width:1" />
             
                <title>function decimalToBinary(x)</title>
            <text x="75" y="100"
                font-family="monospace" font-size="13" fill="#222">
                <tspan x="75" y="100">function decimalToBinary(x)</tspan>
            </text>
                
            </g>
                <g>
                   <rect x="87" y="128.5"
            width="115.8" height="30"
            rx="3" ry="3"
            style="fill:#90caf9; stroke:#444; stroke-width:1" />
                   <title>let bin = 0</title>
            <text x="102" y="148.5"
                font-family="monospace" font-size="13" fill="#222">
                <tspan x="102" y="148.5">let bin = 0</tspan>
            </text>
                   
                   
                </g>
                <g>
                   <rect x="87" y="177"
            width="115.8" height="30"
            rx="3" ry="3"
            style="fill:#90caf9; stroke:#444; stroke-width:1" />
                   <title>let rem = 0</title>
            <text x="102" y="197"
                font-family="monospace" font-size="13" fill="#222">
                <tspan x="102" y="197">let rem = 0</tspan>
            </text>
                   
                   
                </g>
                <g>
                   <rect x="87" y="225.5"
            width="100.2" height="30"
            rx="3" ry="3"
            style="fill:#90caf9; stroke:#444; stroke-width:1" />
                   <title>let i = 1</title>
            <text x="102" y="245.5"
                font-family="monospace" font-size="13" fill="#222">
                <tspan x="102" y="245.5">let i = 1</tspan>
            </text>
                   
                   
                </g>
                <g>
                   <rect x="87" y="274"
            width="123.6" height="30"
            rx="3" ry="3"
            style="fill:#90caf9; stroke:#444; stroke-width:1" />
                   <title>let step = 1</title>
            <text x="102" y="294"
                font-family="monospace" font-size="13" fill="#222">
                <tspan x="102" y="294">let step = 1</tspan>
            </text>
                   
                   
                </g><g>

            <rect x="117" y="357.5"
            width="106.80000000000001" height="30"
            rx="3" ry="3"
            style="fill:#b39ddb; stroke:#444; stroke-width:1" />
            <polygon points="87,372.5 117,342.5 147,372.5 117,402.5"
            style="fill:#b39ddb; stroke:#444; stroke-width:1" />
                
            <title>x != 0</title>
            <text x="162" y="377.5"
                font-family="monospace" font-size="13" fill="#222">
                <tspan x="162" y="377.5">x != 0</tspan>
            </text>
            
            <text x="97.5" y="377.5"
        font-family="monospace" font-size="13" fill="#222">while</text>
        </g>
                <g>
                   <rect x="137" y="412.5"
            width="115.8" height="30"
            rx="3" ry="3"
            style="fill:#90caf9; stroke:#444; stroke-width:1" />
                   <title>rem = x % 2</title>
            <text x="152" y="432.5"
                font-family="monospace" font-size="13" fill="#222">
                <tspan x="152" y="432.5">rem = x % 2</tspan>
            </text>
                   
                   
                </g>
                <g>
                   <rect x="137" y="461"
            width="178.2" height="30"
            rx="3" ry="3"
            style="fill:#90caf9; stroke:#444; stroke-width:1" />
                   <title>x = parseInt(x / 2)</title>
            <text x="152" y="481"
                font-family="monospace" font-size="13" fill="#222">
                <tspan x="152" y="481">x = parseInt(x / 2)</tspan>
            </text>
                   
                   
                </g>
                <g>
                   <rect x="137" y="509.5"
            width="178.2" height="30"
            rx="3" ry="3"
            style="fill:#90caf9; stroke:#444; stroke-width:1" />
                   <title>bin = bin + rem * i</title>
            <text x="152" y="529.5"
                font-family="monospace" font-size="13" fill="#222">
                <tspan x="152" y="529.5">bin = bin + rem * i</tspan>
            </text>
                   
                   
                </g>
                <g>
                   <rect x="137" y="558"
            width="108" height="30"
            rx="3" ry="3"
            style="fill:#90caf9; stroke:#444; stroke-width:1" />
                   <title>i = i * 10</title>
            <text x="152" y="578"
                font-family="monospace" font-size="13" fill="#222">
                <tspan x="152" y="578">i = i * 10</tspan>
            </text>
                   
                   
                </g>
            <g>
                <rect x="87" y="606.5"
            width="108" height="30"
            rx="3" ry="3"
            style="fill:#90caf9; stroke:#444; stroke-width:1" />
                
                <line x1="195" y1="616.5" x2="200" y2="616.5"
                style="fill:#a5d6a7; stroke:#444; stroke-width:1" />
                
                <line x1="195" y1="626.5" x2="200" y2="626.5"
                style="fill:#a5d6a7; stroke:#444; stroke-width:1" />

                <path d="M200, 610.5 L216, 621.5 L200, 632.5 Z" 
        fill="#a5d6a7" stroke="#444" stroke-width="1" />
                             
                <title>return bin</title>
            <text x="102" y="626.5"
                font-family="monospace" font-size="13" fill="#222">
                <tspan x="102" y="626.5">return bin</tspan>
            </text>
                
            </g>
            <g>
               <rect x="25" y="13.75"
            width="216.6" height="24"
            style="fill:#fff59d; stroke:#444; stroke-width:1" />
               <circle cx="25" cy="25" r="15"
        style="fill:#fff59d; stroke:#444; stroke-width:1" />
               <title>Program: source module</title>
            <text x="55" y="30"
                font-family="monospace" font-size="13" fill="#222">
                <tspan x="55" y="30">Program: source module</tspan>
            </text>
            </g>
            <g>
               <path d="M25, 40 L25 91 Q25 95
                29 95
                L42 95 "
        style="fill:none; stroke:#444; stroke-width:1" />
               <path d="M42, 92 L50, 95 L42, 98 Z" 
        fill="#333" />
            </g>
            <g>
               <path d="M68.5, 110 L68.5 139.5 Q68.5 143.5
                72.5 143.5
                L79 143.5 "
        style="fill:none; stroke:#444; stroke-width:1" />
               <path d="M79, 140.5 L87, 143.5 L79, 146.5 Z" 
        fill="#333" />
            </g>
            <g>
               <path d="M68.5, 110 L68.5 188 Q68.5 192
                72.5 192
                L79 192 "
        style="fill:none; stroke:#444; stroke-width:1" />
               <path d="M79, 189 L87, 192 L79, 195 Z" 
        fill="#333" />
            </g>
            <g>
               <path d="M68.5, 110 L68.5 236.5 Q68.5 240.5
                72.5 240.5
                L79 240.5 "
        style="fill:none; stroke:#444; stroke-width:1" />
               <path d="M79, 237.5 L87, 240.5 L79, 243.5 Z" 
        fill="#333" />
            </g>
            <g>
               <path d="M68.5, 110 L68.5 285 Q68.5 289
                72.5 289
                L79 289 "
        style="fill:none; stroke:#444; stroke-width:1" />
               <path d="M79, 286 L87, 289 L79, 292 Z" 
        fill="#333" />
            </g>
            <g>
               <path d="M68.5, 110 L68.5 368.5 Q68.5 372.5
                72.5 372.5
                L79 372.5 "
        style="fill:none; stroke:#444; stroke-width:1" />
               <path d="M79, 369.5 L87, 372.5 L79, 375.5 Z" 
        fill="#333" />
            </g>
            <g>
               <path d="M117, 402.5 L117 423.5 Q117 427.5
                121 427.5
                L129 427.5 "
        style="fill:none; stroke:#444; stroke-width:1" />
               <path d="M129, 424.5 L137, 427.5 L129, 430.5 Z" 
        fill="#333" />
            </g>
            <g>
               <path d="M117, 402.5 L117 472 Q117 476
                121 476
                L129 476 "
        style="fill:none; stroke:#444; stroke-width:1" />
               <path d="M129, 473 L137, 476 L129, 479 Z" 
        fill="#333" />
            </g>
            <g>
               <path d="M117, 402.5 L117 520.5 Q117 524.5
                121 524.5
                L129 524.5 "
        style="fill:none; stroke:#444; stroke-width:1" />
               <path d="M129, 521.5 L137, 524.5 L129, 527.5 Z" 
        fill="#333" />
            </g>
            <g>
               <path d="M117, 402.5 L117 569 Q117 573
                121 573
                L129 573 "
        style="fill:none; stroke:#444; stroke-width:1" />
               <path d="M129, 570 L137, 573 L129, 576 Z" 
        fill="#333" />
            </g>
            <g>
               <path d="M245, 573 L331.2 573  Q335.2 573
                335.2 569
                L335.2 330.5 Q335.2 322.5
                331.2 322.5
                L125 322.5  Q117 322.5
                117 326.5
                L117 334.5"
        style="fill:none; stroke:#444; stroke-width:1" />
               <path d="M114, 334.5 L117, 342.5 L120, 334.5 Z" 
        fill="#333" />
            </g>
            <g>
               <path d="M68.5, 110 L68.5 617.5 Q68.5 621.5
                72.5 621.5
                L79 621.5 "
        style="fill:none; stroke:#444; stroke-width:1" />
               <path d="M79, 618.5 L87, 621.5 L79, 624.5 Z" 
        fill="#333" />
            </g>
            </svg>